<svg xmlns="http://www.w3.org/2000/svg" xml:space="preserve" width="128" height="128" data-id="lg_mPloj6pAncJkNSc0Pq" data-version="1"><g stroke="transparent" data-padding="20"><g fill="#fff" transform="translate(48.42 49.722)scale(.26506)"><filter id="a" width="144%" height="144%" x="-22%" y="-22%"><feGaussianBlur in="SourceAlpha" stdDeviation="3"/><feOffset dy="6" result="oBlur"/><feFlood flood-color="#ffc1c1" flood-opacity="1"/><feComposite in2="oBlur" operator="in"/><feMerge><feMergeNode/><feMergeNode in="SourceGraphic"/></feMerge></filter><path stroke="none" d="m181.929 211.457-44.1 20.82-43.12-94.16q-16.35-35.19-41.13-50.06-24.78-14.86-63.43-14.86h-7.44v153.13h-47.08v-345.91q26.27-2.48 50.3-3.72 24.04-1.24 51.3-1.24 63.43 0 95.4 25.77 31.96 25.77 31.96 66.41 0 36.18-21.56 58.23t-62.19 32.95q13.38 5.95 23.79 14.13 10.4 8.18 20.07 21.8 9.66 13.63 19.57 35.44Zm-199.22-294.37v116.46h54.52q35.68 0 57.98-15.86t22.3-45.59q0-24.78-20.81-40.89-20.82-16.1-59.47-16.1-16.85 0-30.23.49-13.38.5-24.29 1.49" filter="url(#a)" font-family="ABeeZee" font-size="495.575"/></g><path fill="transparent" stroke-width=".289" d="M28.513 12.5h70.974v103H28.513z"/></g></svg>